<svg xmlns="http://www.w3.org/2000/svg" width="300" height="190" viewBox="0 0 300 190">
<rect width="300" height="190" rx="10" fill="#f7f9fc"/><rect width="300" height="32" fill="#fff"/><rect x="12" y="9" width="15" height="15" rx="4" fill="#0869e9"/><path d="M16 13h3m-3 4h3" stroke="#fff"/><g fill="#64748b" font-family="Arial" font-size="7"><text x="35" y="20">ERP</text><text x="78" y="20">Home</text><text x="120" y="20">Resources</text><text x="180" y="20">Reports</text></g><g fill="#fff" stroke="#e1e7f0"><rect x="12" y="44" width="64" height="32" rx="5"/><rect x="82" y="44" width="64" height="32" rx="5"/><rect x="152" y="44" width="64" height="32" rx="5"/><rect x="222" y="44" width="64" height="32" rx="5"/><rect x="12" y="84" width="274" height="44" rx="5"/><rect x="12" y="136" width="132" height="42" rx="5"/><rect x="152" y="136" width="134" height="42" rx="5"/></g><path d="M23 116l40-13 40 5 40-16 40 8 40-12 45 10" fill="none" stroke="#0869e9" stroke-width="2"/><path d="M22 167l22-11 22 4 22-17 22 14 22-7" fill="none" stroke="#0869e9" stroke-width="2"/><circle cx="217" cy="157" r="12" fill="none" stroke="#dbeafe" stroke-width="5"/><path d="M217 145a12 12 0 0 1 11 7" fill="none" stroke="#0869e9" stroke-width="5"/>
</svg>